<svg width="350" height="350" fill="none" xmlns="http://www.w3.org/2000/svg"><g clip-path="url(#clip0_802_1332)"><path fill="#fff" d="M0 0h350v350H0z"/><path fill="#333" d="M-9-18h367v385H-9z"/><path d="M114.349 169h-2.308l6.676-18.182h2.272L127.666 169h-2.309l-5.433-15.305h-.142L114.349 169zm.852-7.102h9.304v1.953h-9.304v-1.953zm20.162 7.386c-1.137 0-2.14-.287-3.01-.861-.87-.58-1.551-1.397-2.042-2.45-.491-1.06-.737-2.312-.737-3.756 0-1.432.246-2.675.737-3.728.491-1.054 1.175-1.868 2.051-2.442.876-.574 1.888-.861 3.036-.861.888 0 1.589.148 2.104.444.521.29.918.621 1.19.994.278.367.494.669.648.906h.177v-6.712h2.096V169h-2.024v-2.095h-.249c-.154.248-.373.562-.657.941-.284.373-.69.707-1.216 1.003-.527.29-1.228.435-2.104.435zm.284-1.882c.84 0 1.55-.219 2.13-.657.58-.444 1.021-1.056 1.323-1.838.302-.787.453-1.695.453-2.725 0-1.018-.148-1.909-.444-2.672-.296-.77-.734-1.368-1.314-1.794-.58-.432-1.296-.648-2.148-.648-.888 0-1.628.228-2.22.684-.586.45-1.027 1.062-1.323 1.837-.29.77-.435 1.634-.435 2.593 0 .97.148 1.852.444 2.645.302.788.746 1.415 1.332 1.883.592.461 1.326.692 2.202.692zm15.243 1.882c-1.136 0-2.14-.287-3.01-.861-.87-.58-1.55-1.397-2.041-2.45-.492-1.06-.737-2.312-.737-3.756 0-1.432.245-2.675.737-3.728.491-1.054 1.174-1.868 2.05-2.442.876-.574 1.888-.861 3.037-.861.887 0 1.589.148 2.104.444.52.29.917.621 1.189.994.278.367.494.669.648.906h.178v-6.712h2.095V169h-2.024v-2.095h-.249c-.154.248-.373.562-.657.941-.284.373-.689.707-1.216 1.003-.527.29-1.228.435-2.104.435zm.284-1.882c.841 0 1.551-.219 2.131-.657.58-.444 1.021-1.056 1.323-1.838.301-.787.452-1.695.452-2.725 0-1.018-.148-1.909-.444-2.672-.295-.77-.733-1.368-1.313-1.794-.58-.432-1.297-.648-2.149-.648-.888 0-1.628.228-2.219.684-.586.45-1.027 1.062-1.323 1.837-.29.77-.435 1.634-.435 2.593 0 .97.148 1.852.444 2.645.302.788.745 1.415 1.331 1.883.592.461 1.326.692 2.202.692zm19.611-16.584V169h-2.201v-18.182h2.201zM174.916 169v-13.636h2.024v2.13h.177a3.424 3.424 0 011.376-1.695c.634-.409 1.394-.613 2.282-.613.9 0 1.648.204 2.246.613.604.402 1.074.967 1.412 1.695h.142a3.979 3.979 0 011.571-1.678c.699-.42 1.536-.63 2.513-.63 1.219 0 2.216.382 2.991 1.145.776.758 1.163 1.939 1.163 3.543V169h-2.095v-9.126c0-1.007-.275-1.726-.825-2.158-.551-.432-1.199-.648-1.945-.648-.958 0-1.701.29-2.228.87-.527.574-.79 1.302-.79 2.184V169h-2.131v-9.339c0-.776-.251-1.4-.754-1.874-.504-.479-1.152-.719-1.945-.719-.544 0-1.053.145-1.527.435a3.29 3.29 0 00-1.136 1.208c-.284.509-.426 1.097-.426 1.766V169h-2.095zm25.741.32c-.864 0-1.648-.163-2.353-.489a4.043 4.043 0 01-1.678-1.429c-.414-.627-.621-1.385-.621-2.273 0-.781.154-1.414.462-1.9a3.253 3.253 0 011.234-1.154 6.49 6.49 0 011.704-.621 20.874 20.874 0 011.891-.338 87.154 87.154 0 012.015-.239c.521-.059.9-.157 1.137-.293.242-.136.364-.373.364-.71v-.071c0-.876-.24-1.557-.719-2.042-.474-.486-1.193-.728-2.158-.728-1 0-1.784.219-2.352.657-.568.438-.968.905-1.199 1.402l-1.988-.71c.355-.828.828-1.474 1.42-1.935a5.33 5.33 0 011.953-.977 8.127 8.127 0 012.095-.284c.438 0 .941.053 1.51.16.574.1 1.127.311 1.66.63.538.32.985.802 1.34 1.447.355.645.533 1.51.533 2.593V169h-2.095v-1.847h-.107c-.142.296-.379.613-.71.95-.331.338-.772.625-1.323.861-.55.237-1.222.356-2.015.356zm.32-1.882c.828 0 1.527-.163 2.095-.489.574-.325 1.006-.746 1.296-1.26a3.214 3.214 0 00.444-1.625v-1.918c-.089.107-.284.204-.586.293a9.806 9.806 0 01-1.03.222c-.385.059-.761.113-1.127.16-.361.041-.654.077-.879.107a7.97 7.97 0 00-1.527.346c-.468.154-.847.387-1.137.701-.284.308-.426.728-.426 1.261 0 .728.269 1.278.808 1.651.545.367 1.234.551 2.069.551zm15.258 6.96c-1.012 0-1.882-.13-2.61-.391-.728-.254-1.334-.592-1.82-1.012a5.528 5.528 0 01-1.145-1.332l1.669-1.172c.189.249.429.533.719.853.29.325.687.606 1.19.843.509.243 1.175.364 1.997.364 1.101 0 2.01-.266 2.726-.799.716-.533 1.074-1.367 1.074-2.503v-2.77h-.177c-.154.248-.373.556-.657.923-.279.361-.681.684-1.208.968-.521.278-1.225.417-2.113.417-1.101 0-2.089-.26-2.965-.781-.87-.521-1.56-1.279-2.068-2.273-.504-.994-.755-2.202-.755-3.622 0-1.397.246-2.613.737-3.649.491-1.042 1.175-1.847 2.051-2.415.875-.574 1.888-.861 3.036-.861.888 0 1.592.148 2.113.444.526.29.929.621 1.207.994.284.367.503.669.657.906h.213v-2.166h2.024v14.027c0 1.171-.266 2.124-.799 2.858-.527.74-1.237 1.282-2.13 1.625-.888.349-1.877.524-2.966.524zm-.071-7.493c.841 0 1.551-.193 2.131-.577.58-.385 1.021-.938 1.323-1.66.302-.722.453-1.587.453-2.593 0-.982-.148-1.849-.444-2.601-.296-.752-.734-1.34-1.314-1.767-.58-.426-1.296-.639-2.149-.639-.887 0-1.627.225-2.219.675-.586.45-1.027 1.053-1.323 1.811-.29.758-.435 1.598-.435 2.521 0 .947.148 1.785.444 2.513.302.722.746 1.29 1.332 1.704.591.409 1.325.613 2.201.613zm15.519 2.379c-1.314 0-2.448-.29-3.4-.87-.947-.586-1.678-1.403-2.193-2.45-.509-1.054-.764-2.279-.764-3.676 0-1.396.255-2.627.764-3.693.515-1.071 1.231-1.906 2.148-2.503.923-.604 2.001-.906 3.232-.906.71 0 1.411.118 2.104.355a5.228 5.228 0 011.891 1.154c.568.527 1.021 1.225 1.358 2.095.337.871.506 1.942.506 3.214v.888h-10.511v-1.811h8.38c0-.769-.153-1.456-.461-2.06a3.483 3.483 0 00-1.296-1.429c-.557-.349-1.214-.524-1.971-.524-.835 0-1.557.207-2.166.622a4.079 4.079 0 00-1.394 1.598 4.688 4.688 0 00-.489 2.113v1.207c0 1.03.178 1.903.533 2.619.361.71.861 1.252 1.5 1.625.64.367 1.382.55 2.229.55a4.53 4.53 0 001.491-.231c.45-.16.838-.396 1.163-.71.326-.32.577-.716.755-1.19l2.024.568a4.49 4.49 0 01-1.074 1.812c-.503.514-1.125.917-1.865 1.207-.739.284-1.571.426-2.494.426zm-107.166 29.965c-1.172 0-2.216-.202-3.134-.604-.911-.403-1.636-.962-2.175-1.678-.532-.722-.822-1.56-.87-2.512h2.238c.047.585.248 1.092.603 1.518.355.42.82.745 1.394.976.574.231 1.21.346 1.909.346.781 0 1.473-.136 2.077-.408.604-.272 1.077-.651 1.421-1.136.343-.486.515-1.048.515-1.687 0-.669-.166-1.258-.498-1.767-.331-.515-.816-.917-1.456-1.207-.639-.29-1.42-.435-2.343-.435h-1.456v-1.953h1.456c.722 0 1.355-.131 1.9-.391.55-.26.979-.627 1.287-1.101.313-.473.47-1.03.47-1.669 0-.615-.136-1.151-.408-1.607a2.793 2.793 0 00-1.154-1.065c-.491-.255-1.071-.382-1.74-.382-.628 0-1.219.116-1.776.346-.55.225-1 .554-1.349.986-.349.426-.539.941-.568 1.545h-2.131c.035-.953.322-1.788.861-2.504.539-.722 1.243-1.284 2.113-1.687.876-.402 1.838-.603 2.885-.603 1.125 0 2.09.227 2.894.683.805.45 1.424 1.045 1.856 1.785.432.739.648 1.538.648 2.397 0 1.024-.269 1.897-.808 2.619-.533.722-1.258 1.222-2.175 1.5v.142c1.148.189 2.045.678 2.69 1.465.645.781.968 1.749.968 2.903a4.61 4.61 0 01-.808 2.663c-.533.782-1.261 1.397-2.184 1.847-.923.45-1.974.675-3.152.675zm15.457 0c-1.042 0-1.98-.208-2.815-.622a5.226 5.226 0 01-2.006-1.704c-.503-.722-.778-1.545-.826-2.468h2.131c.083.822.456 1.503 1.119 2.041.668.533 1.467.799 2.397.799.745 0 1.408-.174 1.988-.523a3.698 3.698 0 001.376-1.439c.338-.615.506-1.311.506-2.086 0-.793-.174-1.5-.523-2.122a3.85 3.85 0 00-1.421-1.482c-.604-.361-1.293-.545-2.068-.551a5.668 5.668 0 00-1.714.258c-.586.171-1.068.393-1.447.666l-2.06-.249 1.101-8.949h9.446v1.953h-7.599l-.639 5.363h.106c.373-.296.841-.542 1.403-.737a5.3 5.3 0 011.758-.293c1.112 0 2.104.266 2.974.799a5.573 5.573 0 012.059 2.166c.503.917.755 1.965.755 3.143 0 1.16-.26 2.195-.781 3.107a5.707 5.707 0 01-2.131 2.148c-.905.521-1.935.782-3.089.782zm15.458 0c-1.337 0-2.477-.364-3.418-1.092-.941-.734-1.66-1.797-2.157-3.188-.497-1.396-.746-3.083-.746-5.06 0-1.965.249-3.643.746-5.034.503-1.396 1.225-2.462 2.166-3.196.947-.739 2.083-1.109 3.409-1.109 1.326 0 2.459.37 3.4 1.109.947.734 1.669 1.8 2.167 3.196.503 1.391.754 3.069.754 5.034 0 1.977-.248 3.664-.746 5.06-.497 1.391-1.216 2.454-2.157 3.188-.941.728-2.08 1.092-3.418 1.092zm0-1.954c1.326 0 2.356-.639 3.09-1.917.734-1.279 1.1-3.101 1.1-5.469 0-1.574-.168-2.915-.506-4.022-.331-1.106-.81-1.95-1.438-2.53-.621-.58-1.37-.87-2.246-.87-1.314 0-2.341.648-3.08 1.944-.74 1.291-1.11 3.117-1.11 5.478 0 1.574.166 2.912.497 4.013.331 1.101.808 1.938 1.429 2.512.628.574 1.382.861 2.264.861zm20.384-1.562l-10.015-10.014 1.35-1.35 10.014 10.015-1.349 1.349zm-8.665 0l-1.35-1.349 10.015-10.015 1.349 1.35-10.014 10.014zm27.63 3.516c-1.172 0-2.217-.202-3.134-.604-.911-.403-1.636-.962-2.175-1.678-.533-.722-.823-1.56-.87-2.512h2.237a2.65 2.65 0 00.604 1.518c.355.42.82.745 1.394.976.574.231 1.21.346 1.908.346.782 0 1.474-.136 2.078-.408.604-.272 1.077-.651 1.42-1.136.344-.486.515-1.048.515-1.687 0-.669-.166-1.258-.497-1.767-.331-.515-.817-.917-1.456-1.207-.639-.29-1.42-.435-2.344-.435h-1.456v-1.953h1.456c.722 0 1.356-.131 1.9-.391.551-.26.98-.627 1.287-1.101.314-.473.471-1.03.471-1.669 0-.615-.136-1.151-.408-1.607a2.799 2.799 0 00-1.154-1.065c-.492-.255-1.072-.382-1.741-.382a4.6 4.6 0 00-1.775.346c-.551.225-1 .554-1.35.986-.349.426-.538.941-.568 1.545h-2.13c.035-.953.322-1.788.861-2.504.538-.722 1.243-1.284 2.113-1.687.876-.402 1.837-.603 2.885-.603 1.124 0 2.089.227 2.894.683.805.45 1.424 1.045 1.856 1.785.432.739.648 1.538.648 2.397 0 1.024-.27 1.897-.808 2.619-.533.722-1.258 1.222-2.175 1.5v.142c1.148.189 2.045.678 2.69 1.465.645.781.967 1.749.967 2.903a4.61 4.61 0 01-.807 2.663c-.533.782-1.261 1.397-2.184 1.847-.924.45-1.974.675-3.152.675zm15.456 0c-1.041 0-1.979-.208-2.814-.622a5.218 5.218 0 01-2.006-1.704 4.642 4.642 0 01-.826-2.468h2.131c.082.822.455 1.503 1.118 2.041.669.533 1.468.799 2.397.799.746 0 1.409-.174 1.989-.523a3.698 3.698 0 001.376-1.439c.337-.615.506-1.311.506-2.086 0-.793-.175-1.5-.524-2.122a3.847 3.847 0 00-1.42-1.482c-.604-.361-1.293-.545-2.069-.551a5.666 5.666 0 00-1.713.258c-.586.171-1.069.393-1.447.666l-2.06-.249 1.101-8.949h9.446v1.953h-7.6l-.639 5.363h.107c.373-.296.84-.542 1.403-.737a5.298 5.298 0 011.757-.293c1.113 0 2.104.266 2.974.799a5.576 5.576 0 012.06 2.166c.503.917.755 1.965.755 3.143 0 1.16-.261 2.195-.782 3.107a5.704 5.704 0 01-2.13 2.148c-.906.521-1.936.782-3.09.782zm15.459 0c-1.338 0-2.477-.364-3.418-1.092-.941-.734-1.66-1.797-2.157-3.188-.498-1.396-.746-3.083-.746-5.06 0-1.965.248-3.643.746-5.034.503-1.396 1.225-2.462 2.166-3.196.947-.739 2.083-1.109 3.409-1.109 1.326 0 2.459.37 3.4 1.109.947.734 1.669 1.8 2.166 3.196.503 1.391.755 3.069.755 5.034 0 1.977-.249 3.664-.746 5.06-.497 1.391-1.216 2.454-2.157 3.188-.941.728-2.081 1.092-3.418 1.092zm0-1.954c1.326 0 2.355-.639 3.089-1.917.734-1.279 1.101-3.101 1.101-5.469 0-1.574-.169-2.915-.506-4.022-.331-1.106-.811-1.95-1.438-2.53-.622-.58-1.37-.87-2.246-.87-1.314 0-2.341.648-3.081 1.944-.74 1.291-1.11 3.117-1.11 5.478 0 1.574.166 2.912.498 4.013.331 1.101.808 1.938 1.429 2.512.627.574 1.382.861 2.264.861z" fill="#fff"/></g><defs><clipPath id="clip0_802_1332"><path fill="#fff" d="M0 0h350v350H0z"/></clipPath></defs></svg>