<svg width="350" height="350" viewBox="0 0 350 350" fill="none" xmlns="http://www.w3.org/2000/svg">
<g clip-path="url(#clip0_802_1332)">
<rect width="350" height="350" fill="white"/>
<rect x="-9" y="-18" width="367" height="385" fill="#333333"/>
<path d="M114.349 169H112.041L118.717 150.818H120.989L127.666 169H125.357L119.924 153.695H119.782L114.349 169ZM115.201 161.898H124.505V163.851H115.201V161.898ZM135.363 169.284C134.226 169.284 133.223 168.997 132.353 168.423C131.483 167.843 130.802 167.026 130.311 165.973C129.82 164.913 129.574 163.661 129.574 162.217C129.574 160.785 129.82 159.542 130.311 158.489C130.802 157.435 131.486 156.621 132.362 156.047C133.238 155.473 134.25 155.186 135.398 155.186C136.286 155.186 136.987 155.334 137.502 155.63C138.023 155.92 138.42 156.251 138.692 156.624C138.97 156.991 139.186 157.293 139.34 157.53H139.517V150.818H141.613V169H139.589V166.905H139.34C139.186 167.153 138.967 167.467 138.683 167.846C138.399 168.219 137.993 168.553 137.467 168.849C136.94 169.139 136.239 169.284 135.363 169.284ZM135.647 167.402C136.487 167.402 137.197 167.183 137.777 166.745C138.357 166.301 138.798 165.689 139.1 164.907C139.402 164.12 139.553 163.212 139.553 162.182C139.553 161.164 139.405 160.273 139.109 159.51C138.813 158.74 138.375 158.142 137.795 157.716C137.215 157.284 136.499 157.068 135.647 157.068C134.759 157.068 134.019 157.296 133.427 157.752C132.841 158.202 132.4 158.814 132.104 159.589C131.814 160.359 131.669 161.223 131.669 162.182C131.669 163.152 131.817 164.034 132.113 164.827C132.415 165.615 132.859 166.242 133.445 166.71C134.037 167.171 134.771 167.402 135.647 167.402ZM150.89 169.284C149.754 169.284 148.75 168.997 147.88 168.423C147.01 167.843 146.33 167.026 145.839 165.973C145.347 164.913 145.102 163.661 145.102 162.217C145.102 160.785 145.347 159.542 145.839 158.489C146.33 157.435 147.013 156.621 147.889 156.047C148.765 155.473 149.777 155.186 150.926 155.186C151.813 155.186 152.515 155.334 153.03 155.63C153.55 155.92 153.947 156.251 154.219 156.624C154.497 156.991 154.713 157.293 154.867 157.53H155.045V150.818H157.14V169H155.116V166.905H154.867C154.713 167.153 154.494 167.467 154.21 167.846C153.926 168.219 153.521 168.553 152.994 168.849C152.467 169.139 151.766 169.284 150.89 169.284ZM151.174 167.402C152.015 167.402 152.725 167.183 153.305 166.745C153.885 166.301 154.326 165.689 154.628 164.907C154.929 164.12 155.08 163.212 155.08 162.182C155.08 161.164 154.932 160.273 154.636 159.51C154.341 158.74 153.903 158.142 153.323 157.716C152.743 157.284 152.026 157.068 151.174 157.068C150.286 157.068 149.546 157.296 148.955 157.752C148.369 158.202 147.928 158.814 147.632 159.589C147.342 160.359 147.197 161.223 147.197 162.182C147.197 163.152 147.345 164.034 147.641 164.827C147.943 165.615 148.386 166.242 148.972 166.71C149.564 167.171 150.298 167.402 151.174 167.402ZM170.785 150.818V169H168.584V150.818H170.785ZM174.916 169V155.364H176.94V157.494H177.117C177.401 156.766 177.86 156.201 178.493 155.799C179.127 155.39 179.887 155.186 180.775 155.186C181.675 155.186 182.423 155.39 183.021 155.799C183.625 156.201 184.095 156.766 184.433 157.494H184.575C184.924 156.79 185.448 156.231 186.146 155.816C186.845 155.396 187.682 155.186 188.659 155.186C189.878 155.186 190.875 155.568 191.65 156.331C192.426 157.089 192.813 158.27 192.813 159.874V169H190.718V159.874C190.718 158.867 190.443 158.148 189.893 157.716C189.342 157.284 188.694 157.068 187.948 157.068C186.99 157.068 186.247 157.358 185.72 157.938C185.193 158.512 184.93 159.24 184.93 160.122V169H182.799V159.661C182.799 158.885 182.548 158.261 182.045 157.787C181.541 157.308 180.893 157.068 180.1 157.068C179.556 157.068 179.047 157.213 178.573 157.503C178.106 157.793 177.727 158.196 177.437 158.711C177.153 159.22 177.011 159.808 177.011 160.477V169H174.916ZM200.657 169.32C199.793 169.32 199.009 169.157 198.304 168.831C197.6 168.5 197.041 168.023 196.626 167.402C196.212 166.775 196.005 166.017 196.005 165.129C196.005 164.348 196.159 163.715 196.467 163.229C196.774 162.738 197.186 162.353 197.701 162.075C198.216 161.797 198.784 161.59 199.405 161.454C200.033 161.312 200.663 161.199 201.296 161.116C202.125 161.01 202.797 160.93 203.311 160.877C203.832 160.818 204.211 160.72 204.448 160.584C204.69 160.448 204.812 160.211 204.812 159.874V159.803C204.812 158.927 204.572 158.246 204.093 157.761C203.619 157.275 202.9 157.033 201.935 157.033C200.935 157.033 200.151 157.252 199.583 157.69C199.015 158.128 198.615 158.595 198.384 159.092L196.396 158.382C196.751 157.554 197.224 156.908 197.816 156.447C198.414 155.979 199.065 155.654 199.769 155.47C200.479 155.281 201.178 155.186 201.864 155.186C202.302 155.186 202.805 155.239 203.374 155.346C203.948 155.446 204.501 155.657 205.034 155.976C205.572 156.296 206.019 156.778 206.374 157.423C206.729 158.068 206.907 158.933 206.907 160.016V169H204.812V167.153H204.705C204.563 167.449 204.326 167.766 203.995 168.103C203.664 168.441 203.223 168.728 202.672 168.964C202.122 169.201 201.45 169.32 200.657 169.32ZM200.977 167.438C201.805 167.438 202.504 167.275 203.072 166.949C203.646 166.624 204.078 166.203 204.368 165.689C204.664 165.174 204.812 164.632 204.812 164.064V162.146C204.723 162.253 204.528 162.35 204.226 162.439C203.93 162.522 203.587 162.596 203.196 162.661C202.811 162.72 202.435 162.774 202.069 162.821C201.708 162.862 201.415 162.898 201.19 162.928C200.645 162.999 200.136 163.114 199.663 163.274C199.195 163.428 198.816 163.661 198.526 163.975C198.242 164.283 198.1 164.703 198.1 165.236C198.1 165.964 198.369 166.514 198.908 166.887C199.453 167.254 200.142 167.438 200.977 167.438ZM216.235 174.398C215.223 174.398 214.353 174.268 213.625 174.007C212.897 173.753 212.291 173.415 211.805 172.995C211.326 172.581 210.944 172.137 210.66 171.663L212.329 170.491C212.518 170.74 212.758 171.024 213.048 171.344C213.338 171.669 213.735 171.95 214.238 172.187C214.747 172.43 215.413 172.551 216.235 172.551C217.336 172.551 218.245 172.285 218.961 171.752C219.677 171.219 220.035 170.385 220.035 169.249V166.479H219.858C219.704 166.727 219.485 167.035 219.201 167.402C218.922 167.763 218.52 168.086 217.993 168.37C217.472 168.648 216.768 168.787 215.88 168.787C214.779 168.787 213.791 168.527 212.915 168.006C212.045 167.485 211.355 166.727 210.847 165.733C210.343 164.739 210.092 163.531 210.092 162.111C210.092 160.714 210.338 159.498 210.829 158.462C211.32 157.42 212.004 156.615 212.88 156.047C213.755 155.473 214.768 155.186 215.916 155.186C216.804 155.186 217.508 155.334 218.029 155.63C218.555 155.92 218.958 156.251 219.236 156.624C219.52 156.991 219.739 157.293 219.893 157.53H220.106V155.364H222.13V169.391C222.13 170.562 221.864 171.515 221.331 172.249C220.804 172.989 220.094 173.531 219.201 173.874C218.313 174.223 217.324 174.398 216.235 174.398ZM216.164 166.905C217.005 166.905 217.715 166.712 218.295 166.328C218.875 165.943 219.316 165.39 219.618 164.668C219.92 163.946 220.071 163.081 220.071 162.075C220.071 161.093 219.923 160.226 219.627 159.474C219.331 158.722 218.893 158.134 218.313 157.707C217.733 157.281 217.017 157.068 216.164 157.068C215.277 157.068 214.537 157.293 213.945 157.743C213.359 158.193 212.918 158.796 212.622 159.554C212.332 160.312 212.187 161.152 212.187 162.075C212.187 163.022 212.335 163.86 212.631 164.588C212.933 165.31 213.377 165.878 213.963 166.292C214.554 166.701 215.288 166.905 216.164 166.905ZM231.683 169.284C230.369 169.284 229.235 168.994 228.283 168.414C227.336 167.828 226.605 167.011 226.09 165.964C225.581 164.91 225.326 163.685 225.326 162.288C225.326 160.892 225.581 159.661 226.09 158.595C226.605 157.524 227.321 156.689 228.238 156.092C229.161 155.488 230.239 155.186 231.47 155.186C232.18 155.186 232.881 155.304 233.574 155.541C234.266 155.778 234.897 156.163 235.465 156.695C236.033 157.222 236.486 157.92 236.823 158.79C237.16 159.661 237.329 160.732 237.329 162.004V162.892H226.818V161.081H235.198C235.198 160.312 235.045 159.625 234.737 159.021C234.435 158.418 234.003 157.941 233.441 157.592C232.884 157.243 232.227 157.068 231.47 157.068C230.635 157.068 229.913 157.275 229.304 157.69C228.7 158.098 228.235 158.631 227.91 159.288C227.584 159.945 227.421 160.649 227.421 161.401V162.608C227.421 163.638 227.599 164.511 227.954 165.227C228.315 165.937 228.815 166.479 229.454 166.852C230.094 167.219 230.836 167.402 231.683 167.402C232.233 167.402 232.73 167.325 233.174 167.171C233.624 167.011 234.012 166.775 234.337 166.461C234.663 166.141 234.914 165.745 235.092 165.271L237.116 165.839C236.903 166.526 236.545 167.13 236.042 167.651C235.539 168.165 234.917 168.568 234.177 168.858C233.438 169.142 232.606 169.284 231.683 169.284ZM124.517 199.249C123.345 199.249 122.301 199.047 121.383 198.645C120.472 198.242 119.747 197.683 119.208 196.967C118.676 196.245 118.386 195.407 118.338 194.455H120.576C120.623 195.04 120.824 195.547 121.179 195.973C121.534 196.393 121.999 196.718 122.573 196.949C123.147 197.18 123.783 197.295 124.482 197.295C125.263 197.295 125.955 197.159 126.559 196.887C127.163 196.615 127.636 196.236 127.98 195.751C128.323 195.265 128.495 194.703 128.495 194.064C128.495 193.395 128.329 192.806 127.997 192.297C127.666 191.782 127.181 191.38 126.541 191.09C125.902 190.8 125.121 190.655 124.198 190.655H122.742V188.702H124.198C124.92 188.702 125.553 188.571 126.098 188.311C126.648 188.051 127.077 187.684 127.385 187.21C127.698 186.737 127.855 186.18 127.855 185.541C127.855 184.926 127.719 184.39 127.447 183.934C127.175 183.479 126.79 183.123 126.293 182.869C125.802 182.614 125.222 182.487 124.553 182.487C123.925 182.487 123.334 182.603 122.777 182.833C122.227 183.058 121.777 183.387 121.428 183.819C121.079 184.245 120.889 184.76 120.86 185.364H118.729C118.764 184.411 119.051 183.576 119.59 182.86C120.129 182.138 120.833 181.576 121.703 181.173C122.579 180.771 123.541 180.57 124.588 180.57C125.713 180.57 126.678 180.797 127.482 181.253C128.287 181.703 128.906 182.298 129.338 183.038C129.77 183.777 129.986 184.576 129.986 185.435C129.986 186.459 129.717 187.332 129.178 188.054C128.645 188.776 127.92 189.276 127.003 189.554V189.696C128.151 189.885 129.048 190.374 129.693 191.161C130.338 191.942 130.661 192.91 130.661 194.064C130.661 195.052 130.391 195.94 129.853 196.727C129.32 197.509 128.592 198.124 127.669 198.574C126.746 199.024 125.695 199.249 124.517 199.249ZM139.974 199.249C138.932 199.249 137.994 199.041 137.159 198.627C136.325 198.213 135.656 197.645 135.153 196.923C134.65 196.201 134.375 195.378 134.327 194.455H136.458C136.541 195.277 136.914 195.958 137.577 196.496C138.245 197.029 139.044 197.295 139.974 197.295C140.719 197.295 141.382 197.121 141.962 196.772C142.548 196.422 143.007 195.943 143.338 195.333C143.676 194.718 143.844 194.022 143.844 193.247C143.844 192.454 143.67 191.747 143.321 191.125C142.977 190.498 142.504 190.004 141.9 189.643C141.296 189.282 140.607 189.098 139.832 189.092C139.275 189.086 138.704 189.172 138.118 189.35C137.532 189.521 137.05 189.743 136.671 190.016L134.611 189.767L135.712 180.818H145.158V182.771H137.559L136.92 188.134H137.026C137.399 187.838 137.867 187.592 138.429 187.397C138.991 187.201 139.577 187.104 140.187 187.104C141.299 187.104 142.291 187.37 143.161 187.903C144.037 188.429 144.723 189.152 145.22 190.069C145.723 190.986 145.975 192.034 145.975 193.212C145.975 194.372 145.715 195.407 145.194 196.319C144.679 197.224 143.969 197.941 143.063 198.467C142.158 198.988 141.128 199.249 139.974 199.249ZM155.432 199.249C154.095 199.249 152.955 198.885 152.014 198.157C151.073 197.423 150.354 196.36 149.857 194.969C149.36 193.573 149.111 191.886 149.111 189.909C149.111 187.944 149.36 186.266 149.857 184.875C150.36 183.479 151.082 182.413 152.023 181.679C152.97 180.94 154.106 180.57 155.432 180.57C156.758 180.57 157.891 180.94 158.832 181.679C159.779 182.413 160.501 183.479 160.999 184.875C161.502 186.266 161.753 187.944 161.753 189.909C161.753 191.886 161.505 193.573 161.007 194.969C160.51 196.36 159.791 197.423 158.85 198.157C157.909 198.885 156.77 199.249 155.432 199.249ZM155.432 197.295C156.758 197.295 157.788 196.656 158.522 195.378C159.256 194.099 159.622 192.277 159.622 189.909C159.622 188.335 159.454 186.994 159.116 185.887C158.785 184.781 158.306 183.937 157.678 183.357C157.057 182.777 156.308 182.487 155.432 182.487C154.118 182.487 153.091 183.135 152.352 184.431C151.612 185.722 151.242 187.548 151.242 189.909C151.242 191.483 151.408 192.821 151.739 193.922C152.07 195.023 152.547 195.86 153.168 196.434C153.796 197.008 154.55 197.295 155.432 197.295ZM175.816 195.733L165.801 185.719L167.151 184.369L177.165 194.384L175.816 195.733ZM167.151 195.733L165.801 194.384L175.816 184.369L177.165 185.719L167.151 195.733ZM194.781 199.249C193.609 199.249 192.564 199.047 191.647 198.645C190.736 198.242 190.011 197.683 189.472 196.967C188.939 196.245 188.649 195.407 188.602 194.455H190.839C190.887 195.04 191.088 195.547 191.443 195.973C191.798 196.393 192.263 196.718 192.837 196.949C193.411 197.18 194.047 197.295 194.745 197.295C195.527 197.295 196.219 197.159 196.823 196.887C197.427 196.615 197.9 196.236 198.243 195.751C198.587 195.265 198.758 194.703 198.758 194.064C198.758 193.395 198.592 192.806 198.261 192.297C197.93 191.782 197.444 191.38 196.805 191.09C196.166 190.8 195.385 190.655 194.461 190.655H193.005V188.702H194.461C195.183 188.702 195.817 188.571 196.361 188.311C196.912 188.051 197.341 187.684 197.648 187.21C197.962 186.737 198.119 186.18 198.119 185.541C198.119 184.926 197.983 184.39 197.711 183.934C197.438 183.479 197.054 183.123 196.557 182.869C196.065 182.614 195.485 182.487 194.816 182.487C194.189 182.487 193.597 182.603 193.041 182.833C192.49 183.058 192.041 183.387 191.691 183.819C191.342 184.245 191.153 184.76 191.123 185.364H188.993C189.028 184.411 189.315 183.576 189.854 182.86C190.392 182.138 191.097 181.576 191.967 181.173C192.843 180.771 193.804 180.57 194.852 180.57C195.976 180.57 196.941 180.797 197.746 181.253C198.551 181.703 199.17 182.298 199.602 183.038C200.034 183.777 200.25 184.576 200.25 185.435C200.25 186.459 199.98 187.332 199.442 188.054C198.909 188.776 198.184 189.276 197.267 189.554V189.696C198.415 189.885 199.312 190.374 199.957 191.161C200.602 191.942 200.924 192.91 200.924 194.064C200.924 195.052 200.655 195.94 200.117 196.727C199.584 197.509 198.856 198.124 197.933 198.574C197.009 199.024 195.959 199.249 194.781 199.249ZM210.237 199.249C209.196 199.249 208.258 199.041 207.423 198.627C206.588 198.213 205.92 197.645 205.417 196.923C204.914 196.201 204.638 195.378 204.591 194.455H206.722C206.804 195.277 207.177 195.958 207.84 196.496C208.509 197.029 209.308 197.295 210.237 197.295C210.983 197.295 211.646 197.121 212.226 196.772C212.812 196.422 213.271 195.943 213.602 195.333C213.939 194.718 214.108 194.022 214.108 193.247C214.108 192.454 213.933 191.747 213.584 191.125C213.241 190.498 212.767 190.004 212.164 189.643C211.56 189.282 210.871 189.098 210.095 189.092C209.539 189.086 208.968 189.172 208.382 189.35C207.796 189.521 207.313 189.743 206.935 190.016L204.875 189.767L205.976 180.818H215.422V182.771H207.822L207.183 188.134H207.29C207.663 187.838 208.13 187.592 208.693 187.397C209.255 187.201 209.841 187.104 210.45 187.104C211.563 187.104 212.554 187.37 213.424 187.903C214.3 188.429 214.987 189.152 215.484 190.069C215.987 190.986 216.239 192.034 216.239 193.212C216.239 194.372 215.978 195.407 215.457 196.319C214.943 197.224 214.232 197.941 213.327 198.467C212.421 198.988 211.391 199.249 210.237 199.249ZM225.696 199.249C224.358 199.249 223.219 198.885 222.278 198.157C221.337 197.423 220.618 196.36 220.121 194.969C219.623 193.573 219.375 191.886 219.375 189.909C219.375 187.944 219.623 186.266 220.121 184.875C220.624 183.479 221.346 182.413 222.287 181.679C223.234 180.94 224.37 180.57 225.696 180.57C227.022 180.57 228.155 180.94 229.096 181.679C230.043 182.413 230.765 183.479 231.262 184.875C231.765 186.266 232.017 187.944 232.017 189.909C232.017 191.886 231.768 193.573 231.271 194.969C230.774 196.36 230.055 197.423 229.114 198.157C228.173 198.885 227.033 199.249 225.696 199.249ZM225.696 197.295C227.022 197.295 228.051 196.656 228.785 195.378C229.519 194.099 229.886 192.277 229.886 189.909C229.886 188.335 229.717 186.994 229.38 185.887C229.049 184.781 228.569 183.937 227.942 183.357C227.32 182.777 226.572 182.487 225.696 182.487C224.382 182.487 223.355 183.135 222.615 184.431C221.875 185.722 221.505 187.548 221.505 189.909C221.505 191.483 221.671 192.821 222.003 193.922C222.334 195.023 222.811 195.86 223.432 196.434C224.059 197.008 224.814 197.295 225.696 197.295Z" fill="white"/>
</g>
<defs>
<clipPath id="clip0_802_1332">
<rect width="350" height="350" fill="white"/>
</clipPath>
</defs>
</svg>
